<?xml version="1.0" encoding="UTF-8"?>
<svg width="40" height="40" viewBox="0 0 40 40" fill="none" xmlns="http://www.w3.org/2000/svg">
  <!-- Hintergrund-Kreis mit Farbverlauf -->
  <defs>
    <linearGradient id="gradient" x1="0%" y1="0%" x2="100%" y2="100%">
      <stop offset="0%" style="stop-color:#1E40AF;stop-opacity:1" />
      <stop offset="100%" style="stop-color:#3B82F6;stop-opacity:1" />
    </linearGradient>
  </defs>
  
  <!-- Hauptkreis -->
  <circle cx="20" cy="20" r="18" fill="url(#gradient)" />
  
  <!-- Kalender-Symbol -->
  <path d="M14 12h12a2 2 0 0 1 2 2v12a2 2 0 0 1-2 2H14a2 2 0 0 1-2-2V14a2 2 0 0 1 2-2z" 
        stroke="white" stroke-width="2" fill="none"/>
  
  <!-- Kalender-Linien -->
  <path d="M12 16h16M12 20h16M12 24h16" 
        stroke="white" stroke-width="2" stroke-linecap="round"/>
  
  <!-- Event-Punkt -->
  <circle cx="20" cy="28" r="2" fill="white"/>
  
  <!-- Dekorative Elemente -->
  <circle cx="20" cy="20" r="16" stroke="white" stroke-width="1" stroke-opacity="0.2" fill="none"/>
  <circle cx="20" cy="20" r="14" stroke="white" stroke-width="1" stroke-opacity="0.1" fill="none"/>
</svg> 